<svg width="128" height="128" viewBox="0 0 128 128" fill="none" xmlns="http://www.w3.org/2000/svg" preserveAspectRatio="xMidYMid meet"><path d="M128 0H0v128h128V0Z" fill="#005091"></path><path d="m43.172 81.562-5.3-7.799-2.666 5.174c-7.158-.87-20.48.216-24.288 7.305-3.809 7.088 6.065 28.222 6.107 28.639l10.967-21.586S15.082 91.833 18 85.886c2.541-5.18 15.152-3.864 15.743-3.767l-3.022 5.696 12.45-6.253ZM48.366 76.437h4.721c2.312 0 3.538.808 2.173 3.336a5.697 5.697 0 0 1-3.677 2.876v.041c1.435.202 1.832 1.302.885 3.057a7.026 7.026 0 0 1-6.47 3.879h-4.755l7.123-13.189Zm-.104 5.404h.808c1.545 0 2.52-.502 3.189-1.734.668-1.233.278-1.713-1.107-1.713h-1.024l-1.866 3.447Zm-3.14 5.807h1.093a3.481 3.481 0 0 0 3.349-1.991c.829-1.532.153-1.978-1.086-1.978h-1.212l-2.145 3.97ZM56.875 85.03l-.431.794c-.627 1.156-.913 2.298.083 2.298s1.623-.64 2.437-1.86h2.43c-1.343 2.305-3.217 3.594-5.765 3.594-3.913 0-2.535-2.834-1.198-5.306 1.435-2.653 3.322-5.125 6.963-5.125 3.155 0 2.786 1.991 1.135 5.034l-.306.571h-5.348Zm3.58-1.518c.758-1.511 1.023-2.354-.098-2.354S58.4 82.21 57.899 83.13l-.209.383h2.764ZM64.925 86.353l-.181.334c-.467.864-.293 1.435.633 1.435a2.2 2.2 0 0 0 2.006-1.177c.355-.648.063-.94-.37-1.121l-1.552-.648c-1.219-.501-1.511-1.392-.752-2.785.884-1.643 2.716-2.987 5.494-2.987 2.451 0 3.043 1.03 2.089 2.785l-.216.404h-2.43c.536-.996.494-1.49-.39-1.49a2.144 2.144 0 0 0-1.845 1.065c-.265.48-.21.884.543 1.163l1.35.515c1.393.536 1.602 1.344.788 2.841A6.205 6.205 0 0 1 64.52 89.8c-3.036 0-3.203-1.253-2.173-3.147l.188-.356 2.389.056ZM77.25 76.841h2.701l-1.538 2.841h1.566l-.905 1.734h-1.567l-2.903 5.362c-.425.773-.418 1.086.369 1.086.21 0 .418-.012.627-.035l-.99 1.797c-.612.055-1.19.111-1.817.111-2.089 0-2.18-.606-1.093-2.618l3.07-5.675h-1.392l.94-1.734h1.393l1.539-2.869ZM86.483 76.291h2.702l-1.177 2.193h-2.667l1.142-2.193Zm-1.838 3.391h2.709l-5.37 9.944h-2.708l5.369-9.944ZM89.651 79.682h2.59l-.626 1.163h.035a5.194 5.194 0 0 1 3.481-1.393c1.685 0 2.215.864 1.156 2.786l-3.983 7.388h-2.702l3.705-6.838c.536-.996.397-1.393-.411-1.393a2.66 2.66 0 0 0-2.319 1.644l-3.586 6.587h-2.709l5.37-9.944Z" fill="#F9B122"></path><path d="M30.763 93.504h7.548c4.38 0 4.269 3.203 2.66 6.413-2.221 4.436-5.953 6.442-10.027 6.442h-2.312l-4.275 8.543H20.04l10.723-21.398Zm-.536 9.679h1.915c1.713 0 3.391-1.016 4.484-3.203 1.093-2.186.815-3.3-1.344-3.3h-1.796l-3.259 6.503ZM40.623 103.726l.195-.39a8.647 8.647 0 0 1 8.161-4.978c4.91 0 4.819 2.04 3.364 4.943l-4.248 8.482c-.752 1.497-1.01 2.186-1.059 3.119h-3.955a6.135 6.135 0 0 1 .335-1.678h-.063a6.629 6.629 0 0 1-5.153 2.089c-2.876 0-2.667-2.458-1.58-4.617 1.517-3.022 3.356-4.254 6.594-5.034l2.653-.627a3.297 3.297 0 0 0 2.597-1.887c.613-1.232.446-1.977-.926-1.977a3.425 3.425 0 0 0-2.973 2.089l-.223.452-3.719.014Zm5.989 3.113a8.558 8.558 0 0 1-2.173.807 4.625 4.625 0 0 0-3.642 2.612c-.62 1.225-.696 2.242.432 2.242a4.524 4.524 0 0 0 3.795-2.486l1.588-3.175ZM57.843 98.782h3.955l-1.079 2.152h.063c1.615-1.553 3.294-2.576 5.007-2.576.233.007.465.028.696.062l-1.985 3.955c-.404 0-.835-.062-1.253-.062a5.115 5.115 0 0 0-4.52 2.91l-4.873 9.679h-4.137l8.126-16.12ZM75.05 93.504 69.388 104.8h.063l7.18-6.017h4.532l-7.826 6.351.438 9.748h-4.554l-.125-6.622-2.43 1.915-2.36 4.707h-4.137l10.724-21.398 4.157.021ZM86.316 93.267h4.136l-1.769 3.53h-4.136l1.769-3.53Zm-2.785 5.515h4.136l-8.078 16.12h-4.136l8.078-16.12ZM90.912 98.782h3.955l-.947 1.887h.055a7.661 7.661 0 0 1 5.265-2.311c2.576 0 3.398 1.392 1.803 4.588l-5.988 11.956h-4.143l5.57-11.141c.815-1.615.592-2.249-.64-2.249-1.393 0-2.626.87-3.524 2.667l-5.361 10.702H82.82l8.092-16.099ZM118.249 98.782l-7.659 15.32c-2.131 4.254-5.056 6.322-9.881 6.322-3.482 0-4.7-1.553-3.322-4.31h3.969a1.045 1.045 0 0 0 0 1.225 1.54 1.54 0 0 0 1.156.453c1.678 0 2.911-1.26 3.733-2.911l1.065-2.123h-.056c-1.441 1.197-3.119 1.977-4.442 1.977-3.294 0-3.816-2.249-.857-8.154 1.894-3.774 4.687-8.21 9.178-8.21 1.142 0 2.277.544 2.214 2.222h.063l.898-1.797 3.941-.014Zm-12.596 12.764c1.734 0 3.189-1.887 4.561-4.617 1.963-3.927 2.193-5.396.543-5.396-1.825 0-2.89 1.469-5.069 5.814-1.115 2.221-1.776 4.199-.035 4.199Z" fill="#fff"></path></svg>