<svg id="visual" viewBox="0 0 900 600" width="900" height="600" xmlns="http://www.w3.org/2000/svg" xmlns:xlink="http://www.w3.org/1999/xlink" version="1.1"><rect x="0" y="0" width="900" height="600" fill="#498eb5"></rect><defs><linearGradient id="grad1_0" x1="33.3%" y1="0%" x2="100%" y2="100%"><stop offset="20%" stop-color="#498eb5" stop-opacity="1"></stop><stop offset="80%" stop-color="#498eb5" stop-opacity="1"></stop></linearGradient></defs><defs><linearGradient id="grad2_0" x1="0%" y1="0%" x2="66.7%" y2="100%"><stop offset="20%" stop-color="#498eb5" stop-opacity="1"></stop><stop offset="80%" stop-color="#498eb5" stop-opacity="1"></stop></linearGradient></defs><g transform="translate(900, 0)"><path d="M0 486.7C-61.4 475.7 -122.9 464.6 -183.7 443.5C-244.5 422.3 -304.6 391 -344.2 344.2C-383.8 297.4 -402.8 235.2 -423.1 175.3C-443.5 115.3 -465.1 57.7 -486.7 0L0 0Z" fill="#ed8c2d"></path></g><g transform="translate(0, 600)"><path d="M0 -486.7C49.3 -448.9 98.7 -411.1 163.4 -394.5C228.2 -377.8 308.3 -382.3 344.2 -344.2C380.1 -306 371.6 -225.2 388 -160.7C404.4 -96.3 445.6 -48.1 486.7 0L0 0Z" fill="#ed8c2d"></path></g></svg>