<svg id="visual" viewBox="0 0 900 600" width="900" height="600" xmlns="http://www.w3.org/2000/svg" xmlns:xlink="http://www.w3.org/1999/xlink" version="1.1"><rect x="0" y="0" width="900" height="600" fill="#75bce6"></rect><defs><linearGradient id="grad1_0" x1="33.3%" y1="0%" x2="100%" y2="100%"><stop offset="20%" stop-color="#75bce6" stop-opacity="1"></stop><stop offset="80%" stop-color="#75bce6" stop-opacity="1"></stop></linearGradient></defs><defs><linearGradient id="grad2_0" x1="0%" y1="0%" x2="66.7%" y2="100%"><stop offset="20%" stop-color="#75bce6" stop-opacity="1"></stop><stop offset="80%" stop-color="#75bce6" stop-opacity="1"></stop></linearGradient></defs><g transform="translate(900, 0)"><path d="M0 486.7C-65 478.7 -130 470.6 -183.7 443.5C-237.4 416.3 -279.8 370 -326 326C-372.2 282 -422.3 240.2 -449.7 186.3C-477.1 132.3 -481.9 66.2 -486.7 0L0 0Z" fill="#ffdebc"></path></g><g transform="translate(0, 600)"><path d="M0 -486.7C58.4 -464.5 116.7 -442.3 173.7 -419.4C230.8 -396.6 286.5 -373.2 335.2 -335.2C383.9 -297.2 425.6 -244.6 449.7 -186.3C473.8 -128 480.3 -64 486.7 0L0 0Z" fill="#ffdebc"></path></g></svg>